# xmcd
#
# Track frame offsets: 
#        150
#        18921
#        41271
#        61344
#        82906
#        103405
#        127449
#        149662
#        167263
#        197182
#        217451
#        242301
#        270649
#        294122
#        327955
#
# Disc length: 4653 seconds
#
# Revision: 0
# Processed by: cddbd v1.5.2PL0 Copyright (c) Steve Scherf et al.
# Submitted via: ExactAudioCopyFreeDBPlugin 1.0
#
DISCID=de122b0f
DTITLE=Regina Belle - All By Myself
DYEAR=1987
DGENRE=R&B
TTITLE0=Show Me The Way
TTITLE1=Take Your Love Away
TTITLE2=Please Be Mine
TTITLE3=After The Love Has Lost Its Shine
TTITLE4=Intimate Relations
TTITLE5=You Got The Love
TTITLE6=How Could You Do It To Me
TTITLE7=Gotta Give It Up
TTITLE8=So Many Tears
TTITLE9=Without You (Love Theme From "Leonard Part 6" - Single Mix)
TTITLE10=Show Me The Way (Extended Mix)
TTITLE11=You Got The Love (Remix)
TTITLE12=How Could You Do It To Me (Remix)
TTITLE13=So Many Tears (Cool Mix)
TTITLE14=Show Me The Way (Instrumental)
EXTD=
EXTT0=
EXTT1=
EXTT2=
EXTT3=
EXTT4=
EXTT5=
EXTT6=
EXTT7=
EXTT8=
EXTT9=
EXTT10=
EXTT11=
EXTT12=
EXTT13=
EXTT14=
PLAYORDER=
